# 3ds Max Wavefront OBJ Exporter v0.99 - (c)2007 guruware
# File Created: 16.03.2024 23:13:37

mtllib cubo_animales.mtl

#
# object Box001
#

v  -10.4766 0.0000 9.9448
v  -10.4766 0.0000 -9.3202
v  9.9064 0.0000 -9.3202
v  9.9064 0.0000 9.9448
v  -10.4766 17.5989 9.9448
v  9.9064 17.5989 9.9448
v  9.9064 17.5989 -9.3202
v  -10.4766 17.5989 -9.3202
# 8 vertices

vn 0.0000 -1.0000 -0.0000
vn 0.0000 1.0000 -0.0000
vn 0.0000 0.0000 1.0000
vn 1.0000 0.0000 -0.0000
vn 0.0000 0.0000 -1.0000
vn -1.0000 0.0000 -0.0000
# 6 vertex normals

vt 0.7413 0.3180 0.0000
vt 0.5125 0.3180 0.0000
vt 0.5125 0.0086 0.0000
vt 0.7413 0.0086 0.0000
vt 0.7429 0.6735 0.0000
vt 0.7429 0.9796 0.0000
vt 0.4973 0.9796 0.0000
vt 0.4973 0.6735 0.0000
vt 0.7455 0.3506 0.0000
vt 0.9956 0.3506 0.0000
vt 0.9956 0.6528 0.0000
vt 0.7455 0.6528 0.0000
vt 0.0056 0.3311 0.0000
vt 0.2499 0.3311 0.0000
vt 0.2499 0.6655 0.0000
vt 0.0056 0.6655 0.0000
vt 0.2526 0.3509 0.0000
vt 0.4902 0.3509 0.0000
vt 0.4902 0.6627 0.0000
vt 0.2526 0.6627 0.0000
vt 0.4971 0.3702 0.0000
vt 0.7466 0.3702 0.0000
vt 0.7466 0.6636 0.0000
vt 0.4971 0.6636 0.0000
# 24 texture coords

o Box001
g Box001
usemtl 01___Default
s 2
f 1/1/1 2/2/1 3/3/1 
f 3/3/1 4/4/1 1/1/1 
s 4
f 5/5/2 6/6/2 7/7/2 
f 7/7/2 8/8/2 5/5/2 
s 8
f 1/9/3 4/10/3 6/11/3 
f 6/11/3 5/12/3 1/9/3 
s 16
f 4/13/4 3/14/4 7/15/4 
f 7/15/4 6/16/4 4/13/4 
s 32
f 3/17/5 2/18/5 8/19/5 
f 8/19/5 7/20/5 3/17/5 
s 64
f 2/21/6 1/22/6 5/23/6 
f 5/23/6 8/24/6 2/21/6 
# 12 faces

