# 3ds Max Wavefront OBJ Exporter v0.99 - (c)2007 guruware
# File Created: 20.09.2023 23:57:27

mtllib god_tail.mtl

#
# object god_tail
#

v  0.0321 -0.0654 -0.2085
v  0.0155 -0.0469 0.0052
v  -0.0688 0.1530 0.0194
v  -0.0523 0.1345 -0.1944
v  -0.6702 0.0738 -0.0587
v  -0.6766 0.0810 0.0249
v  -0.3607 -0.0615 0.0490
v  -0.3441 -0.0801 -0.1647
v  -0.3557 0.1280 0.0525
v  -0.3392 0.1095 -0.1612
v  -0.8453 0.2430 0.0135
v  -0.6747 0.1553 0.0264
v  -0.8504 0.2329 0.0139
v  -0.6683 0.1480 -0.0573
v  -0.8494 0.2318 0.0004
v  -0.8443 0.2418 0.0001
# 16 vertices

vn -0.9217 -0.3860 -0.0378
vn -0.9217 -0.3860 -0.0377
vn 0.4138 0.9091 -0.0469
vn 0.4137 0.9092 -0.0469
vn -0.0492 0.9947 -0.0904
vn 0.0973 -0.9909 0.0934
vn 0.0971 -0.9909 0.0932
vn -0.1168 0.0212 -0.9929
vn -0.1166 0.0213 -0.9930
vn 0.1166 -0.0213 0.9929
vn 0.1168 -0.0209 0.9929
vn 0.0726 0.0056 -0.9973
vn 0.0725 0.0056 -0.9973
vn 0.0725 0.0056 -0.9974
vn -0.0914 -0.9927 0.0789
vn -0.0913 -0.9927 0.0790
vn 0.0832 0.0158 -0.9964
vn 0.0833 0.0161 -0.9964
vn 0.2981 -0.0253 0.9542
vn 0.2981 -0.0255 0.9542
vn 0.8895 -0.4442 0.1073
vn 0.2888 -0.0350 0.9567
vn 0.2888 -0.0350 0.9568
vn 0.6586 0.7524 -0.0145
vn 0.6585 0.7524 -0.0144
vn -0.4594 -0.8873 0.0413
vn -0.4592 -0.8874 0.0416
# 27 vertex normals

vt 1.0000 0.0000 0.0000
vt 1.0000 1.0000 0.0000
vt 0.0000 1.0000 0.0000
vt 0.0000 0.0000 0.0000
# 4 texture coords

o god_tail
g god_tail
usemtl god_tail_goddard_base_Goddard_None
s off
f 1/1/1 2/2/1 3/3/1 
f 3/3/2 4/4/2 1/1/2 
f 5/1/3 6/2/3 7/2/3 
f 7/2/4 8/1/4 5/1/4 
f 8/1/5 7/2/5 2/2/5 
f 2/2/5 1/1/5 8/1/5 
f 9/3/6 10/4/6 4/4/6 
f 4/4/7 3/3/7 9/3/7 
f 7/2/8 9/3/8 3/3/8 
f 3/3/9 2/2/9 7/2/9 
f 10/4/10 8/1/10 1/1/10 
f 1/1/11 4/4/11 10/4/11 
f 11/3/12 12/3/13 6/2/13 
f 6/2/14 13/2/14 11/3/14 
f 12/3/15 14/4/15 10/4/15 
f 10/4/16 9/3/16 12/3/16 
f 9/3/17 7/2/17 6/2/17 
f 6/2/18 12/3/18 9/3/18 
f 5/1/19 8/1/19 10/4/19 
f 10/4/20 14/4/20 5/1/20 
f 11/3/21 13/2/21 15/1/21 
f 15/1/21 16/4/21 11/3/21 
f 14/4/22 16/4/23 15/1/23 
f 15/1/23 5/1/23 14/4/23 
f 13/2/24 6/2/24 5/1/24 
f 5/1/25 15/1/25 13/2/25 
f 16/4/26 14/4/26 12/3/26 
f 12/3/27 11/3/27 16/4/27 
# 0 polygons - 28 triangles

